<mxfile host="app.diagrams.net" agent="Mozilla/5.0 (Windows NT 10.0; Win64; x64) AppleWebKit/537.36 (KHTML, like Gecko) Chrome/137.0.0.0 Safari/537.36" version="27.1.4">
  <diagram name="Page-1" id="e7e014a7-5840-1c2e-5031-d8a46d1fe8dd">
    <mxGraphModel dx="1120" dy="1109" grid="1" gridSize="10" guides="1" tooltips="1" connect="1" arrows="1" fold="1" page="1" pageScale="1" pageWidth="1169" pageHeight="826" background="none" math="0" shadow="0">
      <root>
        <mxCell id="0" />
        <mxCell id="1" parent="0" />
        <mxCell id="FjEfT_NJSf2GpHuPgv-E-47" style="edgeStyle=orthogonalEdgeStyle;rounded=0;orthogonalLoop=1;jettySize=auto;html=1;exitX=0.5;exitY=1;exitDx=0;exitDy=0;entryX=0.5;entryY=0;entryDx=0;entryDy=0;" edge="1" parent="1" source="FjEfT_NJSf2GpHuPgv-E-41" target="FjEfT_NJSf2GpHuPgv-E-42">
          <mxGeometry relative="1" as="geometry" />
        </mxCell>
        <mxCell id="FjEfT_NJSf2GpHuPgv-E-41" value="" style="ellipse;whiteSpace=wrap;html=1;strokeColor=light-dark(#000000,#000000);fillColor=light-dark(#FFFFFF,#FAFAFA);" vertex="1" parent="1">
          <mxGeometry x="552" y="30" width="65" height="60" as="geometry" />
        </mxCell>
        <mxCell id="FjEfT_NJSf2GpHuPgv-E-48" style="edgeStyle=orthogonalEdgeStyle;rounded=0;orthogonalLoop=1;jettySize=auto;html=1;exitX=0.5;exitY=1;exitDx=0;exitDy=0;entryX=0.5;entryY=0;entryDx=0;entryDy=0;" edge="1" parent="1" source="FjEfT_NJSf2GpHuPgv-E-60" target="FjEfT_NJSf2GpHuPgv-E-43">
          <mxGeometry relative="1" as="geometry" />
        </mxCell>
        <mxCell id="FjEfT_NJSf2GpHuPgv-E-42" value="GET DETAILS" style="rounded=0;whiteSpace=wrap;html=1;fillColor=default;" vertex="1" parent="1">
          <mxGeometry x="525" y="190" width="120" height="60" as="geometry" />
        </mxCell>
        <mxCell id="FjEfT_NJSf2GpHuPgv-E-53" style="edgeStyle=orthogonalEdgeStyle;rounded=0;orthogonalLoop=1;jettySize=auto;html=1;exitX=0.5;exitY=1;exitDx=0;exitDy=0;entryX=0.5;entryY=0;entryDx=0;entryDy=0;" edge="1" parent="1" source="FjEfT_NJSf2GpHuPgv-E-43" target="FjEfT_NJSf2GpHuPgv-E-49">
          <mxGeometry relative="1" as="geometry" />
        </mxCell>
        <mxCell id="FjEfT_NJSf2GpHuPgv-E-43" value="VALIDATE DATA" style="rounded=0;whiteSpace=wrap;html=1;fillColor=default;" vertex="1" parent="1">
          <mxGeometry x="524.5" y="320" width="120" height="60" as="geometry" />
        </mxCell>
        <mxCell id="FjEfT_NJSf2GpHuPgv-E-46" style="edgeStyle=orthogonalEdgeStyle;rounded=0;orthogonalLoop=1;jettySize=auto;html=1;exitX=0.5;exitY=0;exitDx=0;exitDy=0;entryX=0;entryY=0.5;entryDx=0;entryDy=0;" edge="1" parent="1" source="FjEfT_NJSf2GpHuPgv-E-44" target="FjEfT_NJSf2GpHuPgv-E-42">
          <mxGeometry relative="1" as="geometry" />
        </mxCell>
        <mxCell id="FjEfT_NJSf2GpHuPgv-E-44" value="REJECTED" style="rounded=0;whiteSpace=wrap;html=1;fillColor=default;" vertex="1" parent="1">
          <mxGeometry x="300" y="450" width="120" height="60" as="geometry" />
        </mxCell>
        <mxCell id="FjEfT_NJSf2GpHuPgv-E-50" style="edgeStyle=orthogonalEdgeStyle;rounded=0;orthogonalLoop=1;jettySize=auto;html=1;exitX=0.5;exitY=0;exitDx=0;exitDy=0;entryX=1;entryY=0.5;entryDx=0;entryDy=0;" edge="1" parent="1" source="FjEfT_NJSf2GpHuPgv-E-45" target="FjEfT_NJSf2GpHuPgv-E-42">
          <mxGeometry relative="1" as="geometry" />
        </mxCell>
        <mxCell id="FjEfT_NJSf2GpHuPgv-E-55" style="edgeStyle=orthogonalEdgeStyle;rounded=0;orthogonalLoop=1;jettySize=auto;html=1;exitX=0.5;exitY=1;exitDx=0;exitDy=0;entryX=1;entryY=0.5;entryDx=0;entryDy=0;" edge="1" parent="1" source="FjEfT_NJSf2GpHuPgv-E-45" target="FjEfT_NJSf2GpHuPgv-E-54">
          <mxGeometry relative="1" as="geometry" />
        </mxCell>
        <mxCell id="FjEfT_NJSf2GpHuPgv-E-45" value="ACCEPTED" style="rounded=0;whiteSpace=wrap;html=1;fillColor=default;" vertex="1" parent="1">
          <mxGeometry x="770" y="450" width="120" height="60" as="geometry" />
        </mxCell>
        <mxCell id="FjEfT_NJSf2GpHuPgv-E-51" style="edgeStyle=orthogonalEdgeStyle;rounded=0;orthogonalLoop=1;jettySize=auto;html=1;exitX=1;exitY=0.5;exitDx=0;exitDy=0;entryX=0;entryY=0.5;entryDx=0;entryDy=0;" edge="1" parent="1" source="FjEfT_NJSf2GpHuPgv-E-56" target="FjEfT_NJSf2GpHuPgv-E-45">
          <mxGeometry relative="1" as="geometry" />
        </mxCell>
        <mxCell id="FjEfT_NJSf2GpHuPgv-E-52" style="edgeStyle=orthogonalEdgeStyle;rounded=0;orthogonalLoop=1;jettySize=auto;html=1;exitX=0;exitY=0.5;exitDx=0;exitDy=0;" edge="1" parent="1" source="FjEfT_NJSf2GpHuPgv-E-58" target="FjEfT_NJSf2GpHuPgv-E-44">
          <mxGeometry relative="1" as="geometry" />
        </mxCell>
        <mxCell id="FjEfT_NJSf2GpHuPgv-E-49" value="" style="rhombus;whiteSpace=wrap;html=1;" vertex="1" parent="1">
          <mxGeometry x="544.5" y="440" width="80" height="80" as="geometry" />
        </mxCell>
        <mxCell id="FjEfT_NJSf2GpHuPgv-E-54" value="" style="ellipse;html=1;shape=endState;fillColor=#000000;strokeColor=light-dark(#FFFFFF,#FAFAFA);perimeterSpacing=0;strokeWidth=1;" vertex="1" parent="1">
          <mxGeometry x="544.5" y="640" width="80" height="70" as="geometry" />
        </mxCell>
        <mxCell id="FjEfT_NJSf2GpHuPgv-E-57" value="" style="edgeStyle=orthogonalEdgeStyle;rounded=0;orthogonalLoop=1;jettySize=auto;html=1;exitX=1;exitY=0.5;exitDx=0;exitDy=0;entryX=0;entryY=0.5;entryDx=0;entryDy=0;" edge="1" parent="1" source="FjEfT_NJSf2GpHuPgv-E-49" target="FjEfT_NJSf2GpHuPgv-E-56">
          <mxGeometry relative="1" as="geometry">
            <mxPoint x="625" y="480" as="sourcePoint" />
            <mxPoint x="770" y="480" as="targetPoint" />
          </mxGeometry>
        </mxCell>
        <mxCell id="FjEfT_NJSf2GpHuPgv-E-56" value="YES" style="text;html=1;align=center;verticalAlign=middle;resizable=0;points=[];autosize=1;strokeColor=none;fillColor=none;" vertex="1" parent="1">
          <mxGeometry x="670" y="465" width="50" height="30" as="geometry" />
        </mxCell>
        <mxCell id="FjEfT_NJSf2GpHuPgv-E-59" value="" style="edgeStyle=orthogonalEdgeStyle;rounded=0;orthogonalLoop=1;jettySize=auto;html=1;exitX=0;exitY=0.5;exitDx=0;exitDy=0;" edge="1" parent="1" source="FjEfT_NJSf2GpHuPgv-E-49" target="FjEfT_NJSf2GpHuPgv-E-58">
          <mxGeometry relative="1" as="geometry">
            <mxPoint x="545" y="480" as="sourcePoint" />
            <mxPoint x="420" y="480" as="targetPoint" />
          </mxGeometry>
        </mxCell>
        <mxCell id="FjEfT_NJSf2GpHuPgv-E-58" value="NO" style="text;html=1;align=center;verticalAlign=middle;resizable=0;points=[];autosize=1;strokeColor=none;fillColor=none;" vertex="1" parent="1">
          <mxGeometry x="460" y="465" width="40" height="30" as="geometry" />
        </mxCell>
        <mxCell id="FjEfT_NJSf2GpHuPgv-E-61" value="" style="edgeStyle=orthogonalEdgeStyle;rounded=0;orthogonalLoop=1;jettySize=auto;html=1;exitX=0.5;exitY=1;exitDx=0;exitDy=0;entryX=0.5;entryY=0;entryDx=0;entryDy=0;" edge="1" parent="1" source="FjEfT_NJSf2GpHuPgv-E-42" target="FjEfT_NJSf2GpHuPgv-E-60">
          <mxGeometry relative="1" as="geometry">
            <mxPoint x="585" y="250" as="sourcePoint" />
            <mxPoint x="585" y="320" as="targetPoint" />
          </mxGeometry>
        </mxCell>
        <mxCell id="FjEfT_NJSf2GpHuPgv-E-60" value="SUBMIT" style="text;html=1;align=center;verticalAlign=middle;resizable=0;points=[];autosize=1;strokeColor=none;fillColor=none;" vertex="1" parent="1">
          <mxGeometry x="547" y="270" width="70" height="30" as="geometry" />
        </mxCell>
        <mxCell id="FjEfT_NJSf2GpHuPgv-E-62" value="ENTER USER NAME AND PASSWORD" style="text;html=1;align=center;verticalAlign=middle;resizable=0;points=[];autosize=1;strokeColor=none;fillColor=default;" vertex="1" parent="1">
          <mxGeometry x="465" y="120" width="240" height="30" as="geometry" />
        </mxCell>
      </root>
    </mxGraphModel>
  </diagram>
</mxfile>
